# MagicaVoxel @ Ephtracy

# group
o 

# material
mtllib evilHedgehog.mtl
usemtl palette

# normals
vn -1 0 0
vn 1 0 0
vn 0 0 1
vn 0 0 -1
vn 0 -1 0
vn 0 1 0

# texcoords
vt 0.115234 0.5
vt 0.263672 0.5
vt 0.416016 0.5
vt 0.994141 0.5

# verts
v -1.6 0.1 0.1
v -1.6 0.1 -0.2
v -1.6 0.3 0.1
v -1.6 0.3 -0.2
v -1.5 0 0.1
v -1.5 0 -0.2
v -1.5 0.1 0.1
v -1.5 0.1 -0.2
v -1.4 0 0.2
v -1.4 0 0.1
v -1.4 0 -0.2
v -1.4 0 -0.3
v -1.4 0.1 0.1
v -1.4 0.1 -0.2
v -1.4 0.3 0.2
v -1.4 0.3 0.1
v -1.4 0.3 -0.2
v -1.4 0.3 -0.3
v -1.3 0 0.3
v -1.3 0 0.2
v -1.3 0 -0.3
v -1.3 0 -0.4
v -1.3 0.3 0.2
v -1.3 0.3 -0.3
v -1.3 0.4 0.3
v -1.3 0.4 -0.4
v -1.2 0 0.4
v -1.2 0 0.3
v -1.2 0 -0.4
v -1.2 0 -0.5
v -1.2 0.4 0.3
v -1.2 0.4 -0.4
v -1.2 0.5 0.4
v -1.2 0.5 -0.5
v -1.1 0 0.5
v -1.1 0 0.4
v -1.1 0 -0.5
v -1.1 0 -0.6
v -1.1 0.5 0.4
v -1.1 0.5 -0.5
v -1.1 0.6 0.5
v -1.1 0.6 -0.6
v -1.1 0.7 0.5
v -1.1 0.7 -0.6
v -1 0.7 0.5
v -1 0.7 -0.6
v -1 0.8 0.5
v -1 0.8 -0.6
v -0.9 0.6 -0.6
v -0.9 0.6 -0.8
v -0.9 0.7 -0.6
v -0.9 0.7 -0.7
v -0.9 0.8 0.5
v -0.9 0.8 -0.6
v -0.9 0.8 -0.7
v -0.9 0.8 -0.8
v -0.9 0.9 0.5
v -0.9 0.9 -0.6
v -0.8 0.6 0.7
v -0.8 0.6 0.5
v -0.8 0.7 0.6
v -0.8 0.7 0.5
v -0.8 0.8 0.7
v -0.8 0.8 0.6
v -0.8 0.9 0.5
v -0.8 0.9 -0.6
v -0.8 1 0.5
v -0.8 1 -0.6
v -0.7 1 0.5
v -0.7 1 -0.6
v -0.7 1.1 0.5
v -0.7 1.1 -0.6
v -0.5 1.1 0.5
v -0.5 1.1 -0.6
v -0.5 1.2 0.5
v -0.5 1.2 -0.6
v -0.3 1.2 0.5
v -0.3 1.2 -0.6
v -0.3 1.3 0.5
v -0.3 1.3 -0.6
v -0.2 1.3 0.5
v -0.2 1.3 -0.6
v -0.2 1.4 0.5
v -0.2 1.4 -0.6
v 0.1 1.2 0.5
v 0.1 1.2 -0.6
v 0.1 1.3 0.5
v 0.1 1.3 -0.6
v 0.2 1.3 0.5
v 0.2 1.3 -0.6
v 0.2 1.4 0.5
v 0.2 1.4 -0.6
v 0.5 1.2 0.5
v 0.5 1.2 -0.6
v 0.5 1.3 0.5
v 0.5 1.3 -0.6
v 0.6 1.3 0.5
v 0.6 1.3 -0.6
v 0.6 1.4 0.5
v 0.6 1.4 -0.6
v 0.8 1 0.5
v 0.8 1 -0.6
v 0.8 1.1 0.5
v 0.8 1.1 -0.6
v 1 0.8 0.5
v 1 0.8 -0.6
v 1 0.9 0.5
v 1 0.9 -0.6
v -0.8 0.6 -0.6
v -0.8 0.6 -0.8
v -0.8 0.7 -0.6
v -0.8 0.7 -0.7
v -0.8 0.8 -0.7
v -0.8 0.8 -0.8
v -0.7 0.6 0.7
v -0.7 0.6 0.5
v -0.7 0.7 0.6
v -0.7 0.7 0.5
v -0.7 0.8 0.7
v -0.7 0.8 0.6
v -0.2 1.2 0.5
v -0.2 1.2 -0.6
v -0.2 1.3 0.5
v -0.2 1.3 -0.6
v -0.1 1.3 0.5
v -0.1 1.3 -0.6
v -0.1 1.4 0.5
v -0.1 1.4 -0.6
v 0.2 1.2 0.5
v 0.2 1.2 -0.6
v 0.2 1.3 0.5
v 0.2 1.3 -0.6
v 0.3 1.3 0.5
v 0.3 1.3 -0.6
v 0.3 1.4 0.5
v 0.3 1.4 -0.6
v 0.6 1.1 0.5
v 0.6 1.1 -0.6
v 0.6 1.3 0.5
v 0.6 1.3 -0.6
v 0.7 1 0.5
v 0.7 1 -0.6
v 0.7 1.1 0.5
v 0.7 1.1 -0.6
v 0.7 1.3 0.5
v 0.7 1.3 -0.6
v 0.7 1.4 0.5
v 0.7 1.4 -0.6
v 0.8 0.9 0.5
v 0.8 0.9 -0.6
v 0.8 1 0.5
v 0.8 1 -0.6
v 0.9 0.8 0.5
v 0.9 0.8 -0.6
v 0.9 0.9 0.5
v 0.9 0.9 -0.6
v 0.9 1 0.5
v 0.9 1 -0.6
v 0.9 1.1 0.5
v 0.9 1.1 -0.6
v 1 0.7 0.5
v 1 0.7 -0.6
v 1 0.8 0.5
v 1 0.8 -0.6
v 1.1 0 0.5
v 1.1 0 -0.6
v 1.1 0.1 0.5
v 1.1 0.1 -0.6
v 1.1 0.2 0.5
v 1.1 0.2 -0.6
v 1.1 0.3 0.5
v 1.1 0.3 -0.6
v 1.1 0.4 0.5
v 1.1 0.4 -0.6
v 1.1 0.5 0.5
v 1.1 0.5 -0.6
v 1.1 0.6 0.5
v 1.1 0.6 -0.6
v 1.1 0.7 0.5
v 1.1 0.7 -0.6
v 1.1 0.8 0.5
v 1.1 0.8 -0.6
v 1.1 0.9 0.5
v 1.1 0.9 -0.6
v 1.2 0.5 0.5
v 1.2 0.5 -0.6
v 1.2 0.6 0.5
v 1.2 0.6 -0.6
v 1.3 0.1 0.5
v 1.3 0.1 -0.6
v 1.3 0.2 0.5
v 1.3 0.2 -0.6
v 1.3 0.3 0.5
v 1.3 0.3 -0.6
v 1.3 0.4 0.5
v 1.3 0.4 -0.6
v -0.8 0.6 0.7
v -0.8 0.8 0.7
v -0.7 0.6 0.7
v -0.7 0.8 0.7
v -1.1 0 0.5
v -1.1 0.6 0.5
v -1.1 0.7 0.5
v -1 0.4 0.5
v -1 0.5 0.5
v -1 0.6 0.5
v -1 0.7 0.5
v -1 0.8 0.5
v -0.9 0.4 0.5
v -0.9 0.5 0.5
v -0.9 0.8 0.5
v -0.9 0.9 0.5
v -0.8 0.6 0.5
v -0.8 0.7 0.5
v -0.8 0.9 0.5
v -0.8 1 0.5
v -0.7 0.6 0.5
v -0.7 0.7 0.5
v -0.7 1 0.5
v -0.7 1.1 0.5
v -0.6 0.6 0.5
v -0.6 0.7 0.5
v -0.5 0.5 0.5
v -0.5 0.6 0.5
v -0.5 1.1 0.5
v -0.5 1.2 0.5
v -0.4 0.4 0.5
v -0.4 0.5 0.5
v -0.3 1.2 0.5
v -0.3 1.3 0.5
v -0.2 1.2 0.5
v -0.2 1.3 0.5
v -0.2 1.4 0.5
v -0.1 1.3 0.5
v -0.1 1.4 0.5
v 0.1 1.2 0.5
v 0.1 1.3 0.5
v 0.2 1.2 0.5
v 0.2 1.3 0.5
v 0.2 1.4 0.5
v 0.3 1.3 0.5
v 0.3 1.4 0.5
v 0.5 1.2 0.5
v 0.5 1.3 0.5
v 0.6 0 0.5
v 0.6 0.4 0.5
v 0.6 1.1 0.5
v 0.6 1.3 0.5
v 0.6 1.4 0.5
v 0.7 1 0.5
v 0.7 1.1 0.5
v 0.7 1.3 0.5
v 0.7 1.4 0.5
v 0.8 0.9 0.5
v 0.8 1 0.5
v 0.8 1.1 0.5
v 0.9 0.8 0.5
v 0.9 0.9 0.5
v 0.9 1 0.5
v 0.9 1.1 0.5
v 1 0.7 0.5
v 1 0.8 0.5
v 1 0.9 0.5
v 1.1 0 0.5
v 1.1 0.1 0.5
v 1.1 0.2 0.5
v 1.1 0.3 0.5
v 1.1 0.4 0.5
v 1.1 0.5 0.5
v 1.1 0.6 0.5
v 1.1 0.7 0.5
v 1.1 0.8 0.5
v 1.1 0.9 0.5
v 1.2 0.5 0.5
v 1.2 0.6 0.5
v 1.3 0.1 0.5
v 1.3 0.2 0.5
v 1.3 0.3 0.5
v 1.3 0.4 0.5
v -1.2 0 0.4
v -1.2 0.5 0.4
v -1.1 0 0.4
v -1.1 0.5 0.4
v -1.3 0 0.3
v -1.3 0.4 0.3
v -1.2 0 0.3
v -1.2 0.4 0.3
v -1.4 0 0.2
v -1.4 0.3 0.2
v -1.3 0 0.2
v -1.3 0.3 0.2
v -1.6 0.1 0.1
v -1.6 0.3 0.1
v -1.5 0 0.1
v -1.5 0.1 0.1
v -1.4 0 0.1
v -1.4 0.1 0.1
v -1.4 0.3 0.1
v -0.9 0.7 -0.7
v -0.9 0.8 -0.7
v -0.8 0.7 -0.7
v -0.8 0.8 -0.7
v -0.8 0.7 0.6
v -0.8 0.8 0.6
v -0.7 0.7 0.6
v -0.7 0.8 0.6
v -1.6 0.1 -0.2
v -1.6 0.3 -0.2
v -1.5 0 -0.2
v -1.5 0.1 -0.2
v -1.4 0 -0.2
v -1.4 0.1 -0.2
v -1.4 0.3 -0.2
v -1.4 0 -0.3
v -1.4 0.3 -0.3
v -1.3 0 -0.3
v -1.3 0.3 -0.3
v -1.3 0 -0.4
v -1.3 0.4 -0.4
v -1.2 0 -0.4
v -1.2 0.4 -0.4
v -1.2 0 -0.5
v -1.2 0.5 -0.5
v -1.1 0 -0.5
v -1.1 0.5 -0.5
v -1.1 0 -0.6
v -1.1 0.6 -0.6
v -1.1 0.7 -0.6
v -1 0.4 -0.6
v -1 0.5 -0.6
v -1 0.6 -0.6
v -1 0.7 -0.6
v -1 0.8 -0.6
v -0.9 0.4 -0.6
v -0.9 0.5 -0.6
v -0.9 0.6 -0.6
v -0.9 0.7 -0.6
v -0.9 0.8 -0.6
v -0.9 0.9 -0.6
v -0.8 0.6 -0.6
v -0.8 0.7 -0.6
v -0.8 0.9 -0.6
v -0.8 1 -0.6
v -0.7 1 -0.6
v -0.7 1.1 -0.6
v -0.6 0.6 -0.6
v -0.6 0.7 -0.6
v -0.5 0.5 -0.6
v -0.5 0.6 -0.6
v -0.5 1.1 -0.6
v -0.5 1.2 -0.6
v -0.4 0.4 -0.6
v -0.4 0.5 -0.6
v -0.3 1.2 -0.6
v -0.3 1.3 -0.6
v -0.2 1.2 -0.6
v -0.2 1.3 -0.6
v -0.2 1.4 -0.6
v -0.1 1.3 -0.6
v -0.1 1.4 -0.6
v 0.1 1.2 -0.6
v 0.1 1.3 -0.6
v 0.2 1.2 -0.6
v 0.2 1.3 -0.6
v 0.2 1.4 -0.6
v 0.3 1.3 -0.6
v 0.3 1.4 -0.6
v 0.5 1.2 -0.6
v 0.5 1.3 -0.6
v 0.6 0 -0.6
v 0.6 0.4 -0.6
v 0.6 1.1 -0.6
v 0.6 1.3 -0.6
v 0.6 1.4 -0.6
v 0.7 1 -0.6
v 0.7 1.1 -0.6
v 0.7 1.3 -0.6
v 0.7 1.4 -0.6
v 0.8 0.9 -0.6
v 0.8 1 -0.6
v 0.8 1.1 -0.6
v 0.9 0.8 -0.6
v 0.9 0.9 -0.6
v 0.9 1 -0.6
v 0.9 1.1 -0.6
v 1 0.7 -0.6
v 1 0.8 -0.6
v 1 0.9 -0.6
v 1.1 0 -0.6
v 1.1 0.1 -0.6
v 1.1 0.2 -0.6
v 1.1 0.3 -0.6
v 1.1 0.4 -0.6
v 1.1 0.5 -0.6
v 1.1 0.6 -0.6
v 1.1 0.7 -0.6
v 1.1 0.8 -0.6
v 1.1 0.9 -0.6
v 1.2 0.5 -0.6
v 1.2 0.6 -0.6
v 1.3 0.1 -0.6
v 1.3 0.2 -0.6
v 1.3 0.3 -0.6
v 1.3 0.4 -0.6
v -0.9 0.6 -0.8
v -0.9 0.8 -0.8
v -0.8 0.6 -0.8
v -0.8 0.8 -0.8
v -1.1 0 0.5
v 0.6 0 0.5
v 1.1 0 0.5
v -1.2 0 0.4
v -1.1 0 0.4
v -1.3 0 0.3
v -1.2 0 0.3
v -1.4 0 0.2
v -1.3 0 0.2
v -1.5 0 0.1
v -1.4 0 0.1
v -1.5 0 -0.2
v -1.4 0 -0.2
v -1.4 0 -0.3
v -1.3 0 -0.3
v -1.3 0 -0.4
v -1.2 0 -0.4
v -1.2 0 -0.5
v -1.1 0 -0.5
v -1.1 0 -0.6
v 0.6 0 -0.6
v 1.1 0 -0.6
v 1.1 0.1 0.5
v 1.3 0.1 0.5
v -1.6 0.1 0.1
v -1.5 0.1 0.1
v -1.6 0.1 -0.2
v -1.5 0.1 -0.2
v 1.1 0.1 -0.6
v 1.3 0.1 -0.6
v 1.1 0.3 0.5
v 1.3 0.3 0.5
v 1.1 0.3 -0.6
v 1.3 0.3 -0.6
v 1.1 0.5 0.5
v 1.2 0.5 0.5
v 1.1 0.5 -0.6
v 1.2 0.5 -0.6
v -0.8 0.6 0.7
v -0.7 0.6 0.7
v -0.8 0.6 0.5
v -0.7 0.6 0.5
v -0.9 0.6 -0.6
v -0.8 0.6 -0.6
v -0.9 0.6 -0.8
v -0.8 0.6 -0.8
v 1 0.8 0.5
v 1.1 0.8 0.5
v 1 0.8 -0.6
v 1.1 0.8 -0.6
v 0.8 1 0.5
v 0.9 1 0.5
v 0.8 1 -0.6
v 0.9 1 -0.6
v -0.2 1.3 0.5
v -0.1 1.3 0.5
v 0.2 1.3 0.5
v 0.3 1.3 0.5
v 0.6 1.3 0.5
v 0.7 1.3 0.5
v -0.2 1.3 -0.6
v -0.1 1.3 -0.6
v 0.2 1.3 -0.6
v 0.3 1.3 -0.6
v 0.6 1.3 -0.6
v 0.7 1.3 -0.6
v 1.1 0.2 0.5
v 1.3 0.2 0.5
v 1.1 0.2 -0.6
v 1.3 0.2 -0.6
v -1.4 0.3 0.2
v -1.3 0.3 0.2
v -1.6 0.3 0.1
v -1.4 0.3 0.1
v -1.6 0.3 -0.2
v -1.4 0.3 -0.2
v -1.4 0.3 -0.3
v -1.3 0.3 -0.3
v 1.1 0.4 0.5
v 1.3 0.4 0.5
v -1.3 0.4 0.3
v -1.2 0.4 0.3
v -1.3 0.4 -0.4
v -1.2 0.4 -0.4
v 1.1 0.4 -0.6
v 1.3 0.4 -0.6
v -1.2 0.5 0.4
v -1.1 0.5 0.4
v -1.2 0.5 -0.5
v -1.1 0.5 -0.5
v 1.1 0.6 0.5
v 1.2 0.6 0.5
v 1.1 0.6 -0.6
v 1.2 0.6 -0.6
v -0.8 0.7 0.6
v -0.7 0.7 0.6
v -1.1 0.7 0.5
v -1 0.7 0.5
v -0.8 0.7 0.5
v -0.7 0.7 0.5
v 1 0.7 0.5
v 1.1 0.7 0.5
v -1.1 0.7 -0.6
v -1 0.7 -0.6
v -0.9 0.7 -0.6
v -0.8 0.7 -0.6
v 1 0.7 -0.6
v 1.1 0.7 -0.6
v -0.9 0.7 -0.7
v -0.8 0.7 -0.7
v -0.8 0.8 0.7
v -0.7 0.8 0.7
v -0.8 0.8 0.6
v -0.7 0.8 0.6
v -1 0.8 0.5
v -0.9 0.8 0.5
v 0.9 0.8 0.5
v 1 0.8 0.5
v -1 0.8 -0.6
v -0.9 0.8 -0.6
v 0.9 0.8 -0.6
v 1 0.8 -0.6
v -0.9 0.8 -0.7
v -0.8 0.8 -0.7
v -0.9 0.8 -0.8
v -0.8 0.8 -0.8
v -0.9 0.9 0.5
v -0.8 0.9 0.5
v 0.8 0.9 0.5
v 0.9 0.9 0.5
v 1 0.9 0.5
v 1.1 0.9 0.5
v -0.9 0.9 -0.6
v -0.8 0.9 -0.6
v 0.8 0.9 -0.6
v 0.9 0.9 -0.6
v 1 0.9 -0.6
v 1.1 0.9 -0.6
v -0.8 1 0.5
v -0.7 1 0.5
v 0.7 1 0.5
v 0.8 1 0.5
v -0.8 1 -0.6
v -0.7 1 -0.6
v 0.7 1 -0.6
v 0.8 1 -0.6
v -0.7 1.1 0.5
v -0.5 1.1 0.5
v 0.6 1.1 0.5
v 0.7 1.1 0.5
v 0.8 1.1 0.5
v 0.9 1.1 0.5
v -0.7 1.1 -0.6
v -0.5 1.1 -0.6
v 0.6 1.1 -0.6
v 0.7 1.1 -0.6
v 0.8 1.1 -0.6
v 0.9 1.1 -0.6
v -0.5 1.2 0.5
v -0.3 1.2 0.5
v -0.2 1.2 0.5
v 0.1 1.2 0.5
v 0.2 1.2 0.5
v 0.5 1.2 0.5
v -0.5 1.2 -0.6
v -0.3 1.2 -0.6
v -0.2 1.2 -0.6
v 0.1 1.2 -0.6
v 0.2 1.2 -0.6
v 0.5 1.2 -0.6
v -0.3 1.3 0.5
v -0.2 1.3 0.5
v 0.1 1.3 0.5
v 0.2 1.3 0.5
v 0.5 1.3 0.5
v 0.6 1.3 0.5
v -0.3 1.3 -0.6
v -0.2 1.3 -0.6
v 0.1 1.3 -0.6
v 0.2 1.3 -0.6
v 0.5 1.3 -0.6
v 0.6 1.3 -0.6
v -0.2 1.4 0.5
v -0.1 1.4 0.5
v 0.2 1.4 0.5
v 0.3 1.4 0.5
v 0.6 1.4 0.5
v 0.7 1.4 0.5
v -0.2 1.4 -0.6
v -0.1 1.4 -0.6
v 0.2 1.4 -0.6
v 0.3 1.4 -0.6
v 0.6 1.4 -0.6
v 0.7 1.4 -0.6

# faces
f 3/4/1 2/4/1 1/4/1
f 4/4/1 2/4/1 3/4/1
f 7/3/1 6/3/1 5/3/1
f 8/3/1 6/3/1 7/3/1
f 13/3/1 10/3/1 9/3/1
f 14/3/1 12/3/1 11/3/1
f 15/3/1 13/3/1 9/3/1
f 16/3/1 13/3/1 15/3/1
f 17/3/1 12/3/1 14/3/1
f 18/3/1 12/3/1 17/3/1
f 23/3/1 20/3/1 19/3/1
f 24/3/1 22/3/1 21/3/1
f 25/3/1 23/3/1 19/3/1
f 25/3/1 24/3/1 23/3/1
f 26/3/1 22/3/1 24/3/1
f 26/3/1 24/3/1 25/3/1
f 31/3/1 28/3/1 27/3/1
f 32/3/1 30/3/1 29/3/1
f 33/3/1 31/3/1 27/3/1
f 33/3/1 32/3/1 31/3/1
f 34/3/1 30/3/1 32/3/1
f 34/3/1 32/3/1 33/3/1
f 39/3/1 36/3/1 35/3/1
f 40/3/1 38/3/1 37/3/1
f 41/3/1 39/3/1 35/3/1
f 41/3/1 40/3/1 39/3/1
f 42/3/1 38/3/1 40/3/1
f 42/3/1 40/3/1 41/3/1
f 43/2/1 42/2/1 41/2/1
f 44/2/1 42/2/1 43/2/1
f 47/2/1 46/2/1 45/2/1
f 48/2/1 46/2/1 47/2/1
f 51/1/1 50/1/1 49/1/1
f 52/1/1 50/1/1 51/1/1
f 55/1/1 50/1/1 52/1/1
f 56/1/1 50/1/1 55/1/1
f 57/2/1 54/2/1 53/2/1
f 58/2/1 54/2/1 57/2/1
f 61/1/1 60/1/1 59/1/1
f 62/1/1 60/1/1 61/1/1
f 63/1/1 61/1/1 59/1/1
f 64/1/1 61/1/1 63/1/1
f 67/2/1 66/2/1 65/2/1
f 68/2/1 66/2/1 67/2/1
f 71/2/1 70/2/1 69/2/1
f 72/2/1 70/2/1 71/2/1
f 75/2/1 74/2/1 73/2/1
f 76/2/1 74/2/1 75/2/1
f 79/2/1 78/2/1 77/2/1
f 80/2/1 78/2/1 79/2/1
f 83/2/1 82/2/1 81/2/1
f 84/2/1 82/2/1 83/2/1
f 87/2/1 86/2/1 85/2/1
f 88/2/1 86/2/1 87/2/1
f 91/2/1 90/2/1 89/2/1
f 92/2/1 90/2/1 91/2/1
f 95/2/1 94/2/1 93/2/1
f 96/2/1 94/2/1 95/2/1
f 99/2/1 98/2/1 97/2/1
f 100/2/1 98/2/1 99/2/1
f 103/2/1 102/2/1 101/2/1
f 104/2/1 102/2/1 103/2/1
f 107/2/1 106/2/1 105/2/1
f 108/2/1 106/2/1 107/2/1
f 109/1/2 110/1/2 111/1/2
f 111/1/2 110/1/2 112/1/2
f 112/1/2 110/1/2 113/1/2
f 113/1/2 110/1/2 114/1/2
f 115/1/2 116/1/2 117/1/2
f 117/1/2 116/1/2 118/1/2
f 115/1/2 117/1/2 119/1/2
f 119/1/2 117/1/2 120/1/2
f 121/2/2 122/2/2 123/2/2
f 123/2/2 122/2/2 124/2/2
f 125/2/2 126/2/2 127/2/2
f 127/2/2 126/2/2 128/2/2
f 129/2/2 130/2/2 131/2/2
f 131/2/2 130/2/2 132/2/2
f 133/2/2 134/2/2 135/2/2
f 135/2/2 134/2/2 136/2/2
f 137/2/2 138/2/2 139/2/2
f 139/2/2 138/2/2 140/2/2
f 141/2/2 142/2/2 143/2/2
f 143/2/2 142/2/2 144/2/2
f 145/2/2 146/2/2 147/2/2
f 147/2/2 146/2/2 148/2/2
f 149/2/2 150/2/2 151/2/2
f 151/2/2 150/2/2 152/2/2
f 153/2/2 154/2/2 155/2/2
f 155/2/2 154/2/2 156/2/2
f 157/2/2 158/2/2 159/2/2
f 159/2/2 158/2/2 160/2/2
f 161/2/2 162/2/2 163/2/2
f 163/2/2 162/2/2 164/2/2
f 165/2/2 166/2/2 167/2/2
f 167/2/2 166/2/2 168/2/2
f 169/2/2 170/2/2 171/2/2
f 171/2/2 170/2/2 172/2/2
f 173/2/2 174/2/2 175/2/2
f 175/2/2 174/2/2 176/2/2
f 177/2/2 178/2/2 179/2/2
f 179/2/2 178/2/2 180/2/2
f 181/2/2 182/2/2 183/2/2
f 183/2/2 182/2/2 184/2/2
f 185/2/2 186/2/2 187/2/2
f 187/2/2 186/2/2 188/2/2
f 189/2/2 190/2/2 191/2/2
f 191/2/2 190/2/2 192/2/2
f 193/2/2 194/2/2 195/2/2
f 195/2/2 194/2/2 196/2/2
f 199/1/3 198/1/3 197/1/3
f 200/1/3 198/1/3 199/1/3
f 204/3/3 202/3/3 201/3/3
f 205/3/3 202/3/3 204/3/3
f 206/2/3 203/2/3 202/2/3
f 206/3/3 202/3/3 205/3/3
f 207/2/3 203/2/3 206/2/3
f 209/4/3 205/4/3 204/4/3
f 209/3/3 204/3/3 201/3/3
f 210/3/3 207/3/3 206/3/3
f 210/4/3 205/4/3 209/4/3
f 210/3/3 206/3/3 205/3/3
f 211/2/3 208/2/3 207/2/3
f 213/3/3 207/3/3 210/3/3
f 213/3/3 210/3/3 209/3/3
f 214/2/3 212/2/3 211/2/3
f 214/3/3 207/3/3 213/3/3
f 214/2/3 211/2/3 207/2/3
f 215/2/3 212/2/3 214/2/3
f 217/3/3 213/3/3 209/3/3
f 218/2/3 216/2/3 215/2/3
f 218/2/3 215/2/3 214/2/3
f 219/2/3 216/2/3 218/2/3
f 221/3/3 217/3/3 209/3/3
f 221/3/3 218/3/3 217/3/3
f 222/2/3 220/2/3 219/2/3
f 222/3/3 218/3/3 221/3/3
f 222/2/3 219/2/3 218/2/3
f 223/3/3 221/3/3 209/3/3
f 224/2/3 222/2/3 221/2/3
f 224/3/3 221/3/3 223/3/3
f 225/2/3 220/2/3 222/2/3
f 225/2/3 222/2/3 224/2/3
f 227/3/3 209/3/3 201/3/3
f 227/3/3 223/3/3 209/3/3
f 228/2/3 224/2/3 223/2/3
f 228/3/3 223/3/3 227/3/3
f 228/2/3 226/2/3 225/2/3
f 228/2/3 225/2/3 224/2/3
f 229/2/3 228/2/3 227/2/3
f 229/2/3 226/2/3 228/2/3
f 231/2/3 229/2/3 227/2/3
f 231/2/3 230/2/3 229/2/3
f 232/2/3 230/2/3 231/2/3
f 234/2/3 233/2/3 232/2/3
f 235/2/3 233/2/3 234/2/3
f 236/2/3 231/2/3 227/2/3
f 238/2/3 236/2/3 227/2/3
f 238/2/3 237/2/3 236/2/3
f 239/2/3 237/2/3 238/2/3
f 241/2/3 240/2/3 239/2/3
f 242/2/3 240/2/3 241/2/3
f 243/2/3 238/2/3 227/2/3
f 245/3/3 227/3/3 201/3/3
f 246/2/3 244/2/3 243/2/3
f 246/3/3 227/3/3 245/3/3
f 246/2/3 243/2/3 227/2/3
f 247/2/3 244/2/3 246/2/3
f 248/2/3 244/2/3 247/2/3
f 250/2/3 246/2/3 245/2/3
f 250/2/3 247/2/3 246/2/3
f 251/2/3 247/2/3 250/2/3
f 252/2/3 249/2/3 248/2/3
f 253/2/3 249/2/3 252/2/3
f 254/2/3 250/2/3 245/2/3
f 255/2/3 250/2/3 254/2/3
f 257/2/3 254/2/3 245/2/3
f 258/2/3 254/2/3 257/2/3
f 259/2/3 256/2/3 255/2/3
f 260/2/3 256/2/3 259/2/3
f 261/2/3 257/2/3 245/2/3
f 262/2/3 257/2/3 261/2/3
f 264/2/3 261/2/3 245/2/3
f 265/2/3 261/2/3 264/2/3
f 266/2/3 261/2/3 265/2/3
f 267/2/3 261/2/3 266/2/3
f 268/2/3 261/2/3 267/2/3
f 269/2/3 261/2/3 268/2/3
f 270/2/3 261/2/3 269/2/3
f 271/2/3 261/2/3 270/2/3
f 272/2/3 263/2/3 262/2/3
f 273/2/3 263/2/3 272/2/3
f 274/2/3 270/2/3 269/2/3
f 275/2/3 270/2/3 274/2/3
f 276/2/3 266/2/3 265/2/3
f 277/2/3 266/2/3 276/2/3
f 278/2/3 268/2/3 267/2/3
f 279/2/3 268/2/3 278/2/3
f 282/3/3 281/3/3 280/3/3
f 283/3/3 281/3/3 282/3/3
f 286/3/3 285/3/3 284/3/3
f 287/3/3 285/3/3 286/3/3
f 290/3/3 289/3/3 288/3/3
f 291/3/3 289/3/3 290/3/3
f 295/4/3 293/4/3 292/4/3
f 296/3/3 295/3/3 294/3/3
f 297/4/3 293/4/3 295/4/3
f 297/3/3 295/3/3 296/3/3
f 298/4/3 293/4/3 297/4/3
f 301/1/3 300/1/3 299/1/3
f 302/1/3 300/1/3 301/1/3
f 303/1/4 304/1/4 305/1/4
f 305/1/4 304/1/4 306/1/4
f 307/4/4 308/4/4 310/4/4
f 309/3/4 310/3/4 311/3/4
f 310/4/4 308/4/4 312/4/4
f 311/3/4 310/3/4 312/3/4
f 312/4/4 308/4/4 313/4/4
f 314/3/4 315/3/4 316/3/4
f 316/3/4 315/3/4 317/3/4
f 318/3/4 319/3/4 320/3/4
f 320/3/4 319/3/4 321/3/4
f 322/3/4 323/3/4 324/3/4
f 324/3/4 323/3/4 325/3/4
f 326/3/4 327/3/4 329/3/4
f 329/3/4 327/3/4 330/3/4
f 327/2/4 328/2/4 331/2/4
f 330/3/4 327/3/4 331/3/4
f 331/2/4 328/2/4 332/2/4
f 329/4/4 330/4/4 334/4/4
f 326/3/4 329/3/4 334/3/4
f 331/3/4 332/3/4 335/3/4
f 334/4/4 330/4/4 335/4/4
f 330/3/4 331/3/4 335/3/4
f 335/3/4 332/3/4 336/3/4
f 332/2/4 333/2/4 337/2/4
f 336/3/4 332/3/4 337/3/4
f 337/2/4 333/2/4 338/2/4
f 335/3/4 336/3/4 340/3/4
f 334/3/4 335/3/4 340/3/4
f 338/2/4 339/2/4 341/2/4
f 337/2/4 338/2/4 341/2/4
f 341/2/4 339/2/4 342/2/4
f 341/2/4 342/2/4 344/2/4
f 342/2/4 343/2/4 344/2/4
f 334/3/4 340/3/4 346/3/4
f 340/3/4 341/3/4 346/3/4
f 344/2/4 345/2/4 347/2/4
f 346/3/4 341/3/4 347/3/4
f 341/2/4 344/2/4 347/2/4
f 334/3/4 346/3/4 348/3/4
f 346/2/4 347/2/4 349/2/4
f 348/3/4 346/3/4 349/3/4
f 347/2/4 345/2/4 350/2/4
f 349/2/4 347/2/4 350/2/4
f 326/3/4 334/3/4 352/3/4
f 334/3/4 348/3/4 352/3/4
f 348/2/4 349/2/4 353/2/4
f 352/3/4 348/3/4 353/3/4
f 350/2/4 351/2/4 353/2/4
f 349/2/4 350/2/4 353/2/4
f 352/2/4 353/2/4 354/2/4
f 353/2/4 351/2/4 354/2/4
f 352/2/4 354/2/4 356/2/4
f 354/2/4 355/2/4 356/2/4
f 356/2/4 355/2/4 357/2/4
f 357/2/4 358/2/4 359/2/4
f 359/2/4 358/2/4 360/2/4
f 352/2/4 356/2/4 361/2/4
f 352/2/4 361/2/4 363/2/4
f 361/2/4 362/2/4 363/2/4
f 363/2/4 362/2/4 364/2/4
f 364/2/4 365/2/4 366/2/4
f 366/2/4 365/2/4 367/2/4
f 352/2/4 363/2/4 368/2/4
f 326/3/4 352/3/4 370/3/4
f 368/2/4 369/2/4 371/2/4
f 370/3/4 352/3/4 371/3/4
f 352/2/4 368/2/4 371/2/4
f 371/2/4 369/2/4 372/2/4
f 372/2/4 369/2/4 373/2/4
f 370/2/4 371/2/4 375/2/4
f 371/2/4 372/2/4 375/2/4
f 375/2/4 372/2/4 376/2/4
f 373/2/4 374/2/4 377/2/4
f 377/2/4 374/2/4 378/2/4
f 370/2/4 375/2/4 379/2/4
f 379/2/4 375/2/4 380/2/4
f 370/2/4 379/2/4 382/2/4
f 382/2/4 379/2/4 383/2/4
f 380/2/4 381/2/4 384/2/4
f 384/2/4 381/2/4 385/2/4
f 370/2/4 382/2/4 386/2/4
f 386/2/4 382/2/4 387/2/4
f 370/2/4 386/2/4 389/2/4
f 389/2/4 386/2/4 390/2/4
f 390/2/4 386/2/4 391/2/4
f 391/2/4 386/2/4 392/2/4
f 392/2/4 386/2/4 393/2/4
f 393/2/4 386/2/4 394/2/4
f 394/2/4 386/2/4 395/2/4
f 395/2/4 386/2/4 396/2/4
f 387/2/4 388/2/4 397/2/4
f 397/2/4 388/2/4 398/2/4
f 394/2/4 395/2/4 399/2/4
f 399/2/4 395/2/4 400/2/4
f 390/2/4 391/2/4 401/2/4
f 401/2/4 391/2/4 402/2/4
f 392/2/4 393/2/4 403/2/4
f 403/2/4 393/2/4 404/2/4
f 405/1/4 406/1/4 407/1/4
f 407/1/4 406/1/4 408/1/4
f 413/3/5 410/3/5 409/3/5
f 415/3/5 413/3/5 412/3/5
f 417/3/5 415/3/5 414/3/5
f 419/3/5 417/3/5 416/3/5
f 420/3/5 419/3/5 418/3/5
f 421/3/5 417/3/5 419/3/5
f 421/3/5 419/3/5 420/3/5
f 422/3/5 417/3/5 421/3/5
f 423/3/5 415/3/5 417/3/5
f 423/3/5 417/3/5 422/3/5
f 424/3/5 415/3/5 423/3/5
f 425/3/5 413/3/5 415/3/5
f 425/3/5 415/3/5 424/3/5
f 426/3/5 413/3/5 425/3/5
f 427/3/5 410/3/5 413/3/5
f 427/3/5 413/3/5 426/3/5
f 428/3/5 410/3/5 427/3/5
f 429/2/5 411/2/5 410/2/5
f 429/3/5 410/3/5 428/3/5
f 430/2/5 411/2/5 429/2/5
f 435/4/5 434/4/5 433/4/5
f 436/4/5 434/4/5 435/4/5
f 437/2/5 432/2/5 431/2/5
f 438/2/5 432/2/5 437/2/5
f 441/2/5 440/2/5 439/2/5
f 442/2/5 440/2/5 441/2/5
f 445/2/5 444/2/5 443/2/5
f 446/2/5 444/2/5 445/2/5
f 449/1/5 448/1/5 447/1/5
f 450/1/5 448/1/5 449/1/5
f 453/1/5 452/1/5 451/1/5
f 454/1/5 452/1/5 453/1/5
f 457/2/5 456/2/5 455/2/5
f 458/2/5 456/2/5 457/2/5
f 461/2/5 460/2/5 459/2/5
f 462/2/5 460/2/5 461/2/5
f 469/2/5 464/2/5 463/2/5
f 470/2/5 464/2/5 469/2/5
f 471/2/5 466/2/5 465/2/5
f 472/2/5 466/2/5 471/2/5
f 473/2/5 468/2/5 467/2/5
f 474/2/5 468/2/5 473/2/5
f 475/2/6 476/2/6 477/2/6
f 477/2/6 476/2/6 478/2/6
f 479/3/6 480/3/6 482/3/6
f 481/4/6 482/4/6 483/4/6
f 482/3/6 480/3/6 484/3/6
f 483/4/6 482/4/6 484/4/6
f 484/3/6 480/3/6 485/3/6
f 485/3/6 480/3/6 486/3/6
f 489/3/6 490/3/6 491/3/6
f 491/3/6 490/3/6 492/3/6
f 487/2/6 488/2/6 493/2/6
f 493/2/6 488/2/6 494/2/6
f 495/3/6 496/3/6 497/3/6
f 497/3/6 496/3/6 498/3/6
f 499/2/6 500/2/6 501/2/6
f 501/2/6 500/2/6 502/2/6
f 503/1/6 504/1/6 507/1/6
f 507/1/6 504/1/6 508/1/6
f 505/2/6 506/2/6 511/2/6
f 511/2/6 506/2/6 512/2/6
f 509/2/6 510/2/6 515/2/6
f 515/2/6 510/2/6 516/2/6
f 513/1/6 514/1/6 517/1/6
f 517/1/6 514/1/6 518/1/6
f 519/1/6 520/1/6 521/1/6
f 521/1/6 520/1/6 522/1/6
f 523/2/6 524/2/6 527/2/6
f 527/2/6 524/2/6 528/2/6
f 525/2/6 526/2/6 529/2/6
f 529/2/6 526/2/6 530/2/6
f 531/1/6 532/1/6 533/1/6
f 533/1/6 532/1/6 534/1/6
f 535/2/6 536/2/6 541/2/6
f 541/2/6 536/2/6 542/2/6
f 537/2/6 538/2/6 543/2/6
f 543/2/6 538/2/6 544/2/6
f 539/2/6 540/2/6 545/2/6
f 545/2/6 540/2/6 546/2/6
f 547/2/6 548/2/6 551/2/6
f 551/2/6 548/2/6 552/2/6
f 549/2/6 550/2/6 553/2/6
f 553/2/6 550/2/6 554/2/6
f 555/2/6 556/2/6 561/2/6
f 561/2/6 556/2/6 562/2/6
f 557/2/6 558/2/6 563/2/6
f 563/2/6 558/2/6 564/2/6
f 559/2/6 560/2/6 565/2/6
f 565/2/6 560/2/6 566/2/6
f 567/2/6 568/2/6 573/2/6
f 573/2/6 568/2/6 574/2/6
f 569/2/6 570/2/6 575/2/6
f 575/2/6 570/2/6 576/2/6
f 571/2/6 572/2/6 577/2/6
f 577/2/6 572/2/6 578/2/6
f 579/2/6 580/2/6 585/2/6
f 585/2/6 580/2/6 586/2/6
f 581/2/6 582/2/6 587/2/6
f 587/2/6 582/2/6 588/2/6
f 583/2/6 584/2/6 589/2/6
f 589/2/6 584/2/6 590/2/6
f 591/2/6 592/2/6 597/2/6
f 597/2/6 592/2/6 598/2/6
f 593/2/6 594/2/6 599/2/6
f 599/2/6 594/2/6 600/2/6
f 595/2/6 596/2/6 601/2/6
f 601/2/6 596/2/6 602/2/6
